<svg xmlns="http://www.w3.org/2000/svg" viewBox="0 0 256 256" fill="#2563eb">
  <circle cx="128" cy="128" r="120" fill="#2563eb"/>
  <path d="M128 48 C128 48, 128 68, 128 68 C100 68, 80 88, 80 112 C80 136, 100 148, 128 156 C156 164, 176 176, 176 200 C176 224, 156 244, 128 244 C128 244, 128 264, 128 264 M128 48 L128 24 M128 232 L128 256" stroke="white" stroke-width="16" fill="none"/>
  <path d="M128 68 C100 68, 80 88, 80 112 C80 136, 100 148, 128 156 C156 164, 176 176, 176 200 C176 224, 156 244, 128 244" stroke="white" stroke-width="16" fill="none"/>
</svg>